<?xml version="1.0" encoding="UTF-8" standalone="no"?>
<svg
   version="1.0"
   width="889.90826pt"
   height="901.83746pt"
   viewBox="0 0 889.90826 901.83746"
   preserveAspectRatio="xMidYMid"
   id="svg188"
   sodipodi:docname="csw_logo_light_26.svg"
   inkscape:version="1.4.2 (ebf0e940d0, 2025-05-08)"
   inkscape:export-filename="csw_logo_27.png"
   inkscape:export-xdpi="96"
   inkscape:export-ydpi="96"
   xmlns:inkscape="http://www.inkscape.org/namespaces/inkscape"
   xmlns:sodipodi="http://sodipodi.sourceforge.net/DTD/sodipodi-0.dtd"
   xmlns:xlink="http://www.w3.org/1999/xlink"
   xmlns="http://www.w3.org/2000/svg"
   xmlns:svg="http://www.w3.org/2000/svg">
  <defs
     id="defs192">
    <rect
       x="967.59041"
       y="183.65471"
       width="172.72844"
       height="136.21053"
       id="rect889" />
    <linearGradient
       inkscape:collect="always"
       id="linearGradient1415">
      <stop
         style="stop-color:#8ac926;stop-opacity:1;"
         offset="0.1"
         id="stop1411" />
      <stop
         style="stop-color:#ff595e;stop-opacity:1;"
         offset="0.89999998"
         id="stop1413" />
    </linearGradient>
    <linearGradient
       id="linearGradient1285"
       inkscape:swatch="gradient">
      <stop
         style="stop-color:#787878;stop-opacity:1;"
         offset="0"
         id="stop1281" />
      <stop
         style="stop-color:#000000;stop-opacity:0;"
         offset="1"
         id="stop1283" />
    </linearGradient>
    <inkscape:perspective
       sodipodi:type="inkscape:persp3d"
       inkscape:vp_x="891.19067 : 708.69498 : 1"
       inkscape:vp_y="0 : 1000 : 0"
       inkscape:vp_z="889.90826 : 450.91873 : 1"
       inkscape:persp3d-origin="444.95413 : 300.61249 : 1"
       id="perspective224" />
    <linearGradient
       inkscape:collect="always"
       xlink:href="#linearGradient1415"
       id="linearGradient1421"
       x1="434.96002"
       y1="595.73193"
       x2="434.96002"
       y2="267.79779"
       gradientUnits="userSpaceOnUse" />
  </defs>
  <sodipodi:namedview
     id="namedview190"
     pagecolor="#ffffff"
     bordercolor="#666666"
     borderopacity="1.0"
     inkscape:showpageshadow="2"
     inkscape:pageopacity="0"
     inkscape:pagecheckerboard="true"
     inkscape:deskcolor="#d1d1d1"
     inkscape:document-units="pt"
     showgrid="false"
     inkscape:zoom="0.57859876"
     inkscape:cx="430.35004"
     inkscape:cy="723.29917"
     inkscape:window-width="1916"
     inkscape:window-height="1042"
     inkscape:window-x="1080"
     inkscape:window-y="36"
     inkscape:window-maximized="1"
     inkscape:current-layer="svg188" />
  <metadata
     id="metadata2">
Created by potrace 1.15, written by Peter Selinger 2001-2017
</metadata>
  <g
     id="decoration"
     inkscape:highlight-color="#999999">
    <g
       id="bottom"
       style="fill:#999999;fill-opacity:1;fill-rule:nonzero;stroke:none;stroke-width:1.4;stroke-linecap:round;stroke-linejoin:round;stroke-dasharray:none;stroke-opacity:0.995093;paint-order:stroke markers fill">
      <path
         d="m 431.76299,1.9661279 c -5.2,2.6 -7.7,6.2 -9,12.7000001 -1,5 -1.5,5.6 -20.5,23.4 -10.7,10 -25.3,23.9 -32.5,30.8 -7.1,7 -18.2,17.6 -24.5,23.6 -6.3,6.1 -16.7,16.000002 -23,22.000002 -6.3,6.1 -15.1,14.5 -19.5,18.7 l -8,7.6 -6.5,-0.5 c -7.7,-0.5 -11.7,1.2 -16.5,7.1 -2.7,3.4 -3,4.5 -3,10.4 v 6.7 l -36.2,35.9 c -20,19.7 -36.3,36.2 -36.3,36.6 0,0.4 1.6,2 3.5,3.4 4.2,3.3 3.9,3.4 16.4,-8.6 4.7,-4.6 20.3,-19.6 34.5,-33.3 l 25.9,-25 6.6,0.3 c 5.8,0.3 7.1,0 10.6,-2.3 6.5,-4.2 8.9,-8.6 9,-16 v -6.3 l 46,-43.8 c 66.6,-63.400002 78.4,-74.400002 80.3,-74.400002 0.9,0.1 2.8,0.7 4.2,1.5 3.2,1.9 8.2,1.9 12.5,0.1 l 3.5,-1.5 8.7,8.2 c 16.9,15.7 46,43.6 64,61.200002 l 13.3,12.9 -5.2,5.3 c -5.1,5.1 -5.1,5.2 -7.4,3.4 -1.3,-1 -15.2,-14.4 -31.1,-29.800002 -42.2,-41 -41.3,-40.3 -49.6,-40.3 -8.6,0.1 -8.7,0.2 -55.7,46.4 -26.2,25.900002 -65.4,63.700002 -118.8,114.900002 -18.3,17.5 -33.2,32.4 -33.2,33.1 0,1.2 11,12.6 12.3,12.6 0.8,0 34.8,-30.2 39.5,-35.2 l 3.2,-3.4 -3,-2.9 c -1.6,-1.6 -2.9,-3.6 -2.9,-4.4 0.1,-0.9 5.2,-6.3 11.3,-12.1 27.8,-26.2 81.2,-77.5 102.1,-98.1 12.7,-12.500002 26.4,-25.900002 30.5,-29.800002 8.6,-8.3 13,-10.2 18.2,-8 1.8,0.7 18.4,16.1 38.6,35.900002 33.6,32.8 45.1,43.9 90.2,86.9 10.7,10.2 27.7,26.6 37.9,36.3 10.1,9.8 18.9,17.8 19.5,17.8 0.6,0 2.6,-1.5 4.5,-3.2 l 3.5,-3.1 -16.5,-16.1 c -14.7,-14.4 -68.7,-66.2 -85.8,-82.3 l -6.6,-6.2 11.2,-11.3 11.1,-11.3 -35.1,-34.100002 c -19.4,-18.7 -40.9,-39.4 -47.9,-45.9 -10.7,-10 -12.8,-12.4 -13.7,-16 -1.1,-4.5000001 -6.1,-9.8000001 -10.8,-11.60000011 -4,-1.5 -9.5,-1 -13.8,1.10000001 z"
         id="path4"
         style="fill:#999999;fill-opacity:1;fill-rule:nonzero;stroke:none;stroke-width:1.4;stroke-linecap:round;stroke-linejoin:round;stroke-dasharray:none;stroke-opacity:0.995093;paint-order:stroke markers fill" />
      <path
         d="m 174.5248,168.88764 c -13.6,6.7 -16.9,24.2 -6.5,34.9 9,9.3 21.7,10 31.3,1.7 5.5,-4.6 8.3,-10.4 8.2,-16.7 -0.1,-6.5 -1.3,-9.5 -5.9,-14.6 -7.3,-8.1 -17.4,-10.1 -27.1,-5.3 z m 15.3,9.8 c 3.8,1.6 6.5,6 6.5,10.7 0,2.2 -1,4.1 -3.4,6.5 -2.9,2.9 -4.1,3.4 -8.1,3.4 -4,0 -5.2,-0.5 -8.1,-3.4 -5.5,-5.5 -4.3,-13.4 2.6,-16.8 4.2,-2.2 6,-2.2 10.5,-0.4 z"
         id="path20"
         style="display:none;fill:#999999;fill-opacity:1;fill-rule:nonzero;stroke:none;stroke-width:1.4;stroke-linecap:round;stroke-linejoin:round;stroke-dasharray:none;stroke-opacity:0.995093;paint-order:stroke markers fill" />
      <path
         d="m 419.06299,106.16613 c -30,28.9 -159.2,159.4 -159.6,161.2 -0.3,1.4 4.7,5.6 6.5,5.6 0.6,0 40.6,-39.6 89.1,-88.1 48.5,-48.4 88.6,-87.900002 89.1,-87.700002 0.6,0.1 9,7.900002 18.7,17.300002 31,29.8 44.6,42.5 45.6,42.5 0.5,0 2.2,-1.4 3.9,-3.1 l 3.1,-3.2 -6.4,-6.4 c -3.4,-3.6 -18.7,-18.6 -34,-33.4 -22.1,-21.600002 -28.2,-26.900002 -30.3,-26.900002 -2.1,0 -7.4,4.6 -25.7,22.200002 z"
         id="path22"
         style="fill:#999999;fill-opacity:1;fill-rule:nonzero;stroke:none;stroke-width:1.4;stroke-linecap:round;stroke-linejoin:round;stroke-dasharray:none;stroke-opacity:0.995093;paint-order:stroke markers fill" />
      <path
         d="m 557.96299,120.76613 c -1.9,1.93333 -3.8,3.86667 -5.7,5.8 21.21214,20.60872 42.99583,40.61762 64.2627,61.16973 2.89223,1.7114 5.98178,8.02158 9.31328,4.91316 3.33437,-3.11443 6.18065,-6.69405 9.22402,-10.08289 -20.13708,-19.33735 -40.14487,-38.8084 -60.16038,-58.27095 -3.41059,-3.14402 -6.64594,-6.51914 -10.33962,-9.32905 -2.50005,1.52391 -4.47689,3.81036 -6.6,5.8 z"
         id="path28"
         style="fill:#999999;fill-opacity:1;fill-rule:nonzero;stroke:none;stroke-width:1.4;stroke-linecap:round;stroke-linejoin:round;stroke-dasharray:none;stroke-opacity:0.995093;paint-order:stroke markers fill" />
      <path
         d="m 434.26299,138.96613 c -1.1,1.1 -2,2.8 -2,3.7 0,2.2 28.7,30 31.8,30.9 2.6,0.7 6.2,-1.9 6.2,-4.6 0,-2 -2.1,-4.2 -18.6,-20.3 -6.7,-6.4 -12.9,-11.7 -13.8,-11.7 -0.9,0 -2.5,0.9 -3.6,2 z"
         id="path34"
         style="fill:#999999;fill-opacity:1;fill-rule:nonzero;stroke:none;stroke-width:1.4;stroke-linecap:round;stroke-linejoin:round;stroke-dasharray:none;stroke-opacity:0.995093;paint-order:stroke markers fill" />
      <path
         d="m 496.36299,167.36613 -3.2,3.3 15.8,15.5 c 24.4,23.9 55.2,53.2 56.9,54.1 1.5,0.9 8.4,-3.4 8.4,-5.3 0,-0.4 -13.4,-13.8 -29.7,-29.7 -37.1,-36.1 -42.7,-41.3 -43.9,-41.3 -0.6,0 -2.5,1.5 -4.3,3.4 z"
         id="path46"
         style="fill:#999999;fill-opacity:1;fill-rule:nonzero;stroke:none;stroke-width:1.4;stroke-linecap:round;stroke-linejoin:round;stroke-dasharray:none;stroke-opacity:0.995093;paint-order:stroke markers fill" />
      <path
         d="m 397.86299,173.06613 c -1.4,2.1 -1.2,4.2 0.6,6.5 1.4,1.9 7.2,2.5 16.8,1.8 8.1,-0.6 9.3,-1 10.7,-3 1.4,-2.2 1.4,-2.6 -0.1,-4.9 -1.6,-2.4 -1.9,-2.5 -14.1,-2.5 -11.5,0 -12.5,0.2 -13.9,2.1 z"
         id="path48"
         style="fill:#999999;fill-opacity:1;fill-rule:nonzero;stroke:none;stroke-width:1.4;stroke-linecap:round;stroke-linejoin:round;stroke-dasharray:none;stroke-opacity:0.995093;paint-order:stroke markers fill" />
      <path
         d="m 480.66299,184.06613 -2.9,3.1 18.5,17.9 c 22.9,22.3 22.3,21.8 25.8,19.2 5.2,-3.8 4.6,-4.7 -16.1,-24.6 -10.7,-10.3 -20.1,-18.7 -20.9,-18.7 -0.8,0 -2.7,1.4 -4.4,3.1 z"
         id="path54"
         style="fill:#999999;fill-opacity:1;fill-rule:nonzero;stroke:none;stroke-width:1.4;stroke-linecap:round;stroke-linejoin:round;stroke-dasharray:none;stroke-opacity:0.995093;paint-order:stroke markers fill" />
      <path
         d="m 640.26299,192.2044 c -1.16667,1.2 -2.33333,2.4 -3.5,3.6 13.11612,12.69155 26.01811,25.60806 39.39785,38.02399 3.24965,2.83868 6.27866,6.01747 9.90215,8.37601 2.71739,0.30876 5.26613,-1.62157 6.74121,-3.76892 1.33631,-2.64754 -2.71006,-4.20705 -3.89905,-6.22771 -13.71264,-13.96511 -27.6321,-27.73306 -41.8572,-41.17642 -1.43671,-1.95448 -3.45876,-2.90732 -5.04949,-0.5219 -0.6006,0.54175 -1.17818,1.10881 -1.73547,1.69495 z"
         id="path56"
         style="fill:#999999;fill-opacity:1;fill-rule:nonzero;stroke:none;stroke-width:1.4;stroke-linecap:round;stroke-linejoin:round;stroke-dasharray:none;stroke-opacity:0.995093;paint-order:stroke markers fill" />
      <path
         d="m 314.78355,248.19647 c -4.6,4.3 -3.8,11.2 1.6,14.3 5.9,3.5 13.2,-1 13.2,-8.1 0,-7.1 -9.5,-11.1 -14.8,-6.2 z"
         id="path60"
         style="fill:#999999;fill-opacity:1;fill-rule:nonzero;stroke:none;stroke-width:1.4;stroke-linecap:round;stroke-linejoin:round;stroke-dasharray:none;stroke-opacity:0.995093;paint-order:stroke markers fill" />
      <path
         d="m 437.96299,194.76613 c -1,1 -1.7,2.5 -1.7,3.4 0,0.8 4.4,5.8 9.8,11.1 11.5,11.4 13,12.6 15.8,12.7 2.8,0 5.7,-3.4 5,-5.8 -1,-2.9 -23.1,-23.2 -25.4,-23.2 -1,0 -2.6,0.8 -3.5,1.8 z"
         id="path62"
         style="fill:#999999;fill-opacity:1;fill-rule:nonzero;stroke:none;stroke-width:1.4;stroke-linecap:round;stroke-linejoin:round;stroke-dasharray:none;stroke-opacity:0.995093;paint-order:stroke markers fill" />
      <path
         d="m 478.46142,231.76612 c -1,1 -1.7,2.5 -1.7,3.4 0,0.80001 4.4,5.80001 9.8,11.1 11.5,11.4 13,12.6 15.8,12.70001 2.8,0 5.7,-3.40001 5,-5.80001 -1,-2.9 -23.1,-23.2 -25.4,-23.2 -1,0 -2.6,0.8 -3.5,1.8 z"
         id="path62-3"
         style="fill:#999999;fill-opacity:1;fill-rule:nonzero;stroke:none;stroke-width:1.4;stroke-linecap:round;stroke-linejoin:round;stroke-dasharray:none;stroke-opacity:0.995093;paint-order:stroke markers fill" />
      <path
         d="m 375.26299,198.96613 c -1.1,1.1 -2,2.7 -2,3.5 0,0.8 0.9,2.4 2,3.5 1.8,1.8 3.3,2 14.3,2 6.7,0 12.7,-0.4 13.3,-0.8 1.9,-1.2 3.4,-5 2.8,-6.7 -1.1,-2.7 -4.9,-3.5 -17,-3.5 -10.1,0 -11.6,0.2 -13.4,2 z"
         id="path68"
         style="fill:#999999;fill-opacity:1;fill-rule:nonzero;stroke:none;stroke-width:1.4;stroke-linecap:round;stroke-linejoin:round;stroke-dasharray:none;stroke-opacity:0.995093;paint-order:stroke markers fill" />
      <path
         d="m 349.86299,222.46613 c -2.1,2.2 -2,4.8 0.3,6.9 1.6,1.4 4,1.6 17.7,1.4 l 15.9,-0.3 0.9,-2.8 c 0.7,-1.9 0.7,-3.4 0,-4.5 -1,-1.5 -3.3,-1.7 -17.2,-2 -13.6,-0.2 -16.3,0 -17.6,1.3 z"
         id="path74"
         style="fill:#999999;fill-opacity:1;fill-rule:nonzero;stroke:none;stroke-width:1.4;stroke-linecap:round;stroke-linejoin:round;stroke-dasharray:none;stroke-opacity:0.995093;paint-order:stroke markers fill" />
      <path
         d="m 482.76299,233.36613 c -1.4,1.4 -2.5,3.1 -2.5,3.9 0,1.2 11.7,13.1 31.2,31.6 8.5,8.1 11,8.7 14,3.6 l 1.7,-3 -19.6,-18.5 c -10.8,-10.2 -20.2,-18.9 -20.9,-19.3 -0.9,-0.5 -2.3,0.1 -3.9,1.7 z"
         id="path80"
         style="display:none;fill:#999999;fill-opacity:1;fill-rule:nonzero;stroke:none;stroke-width:1.4;stroke-linecap:round;stroke-linejoin:round;stroke-dasharray:none;stroke-opacity:0.995093;paint-order:stroke markers fill" />
    </g>
    <g
       id="top"
       style="fill:#999999;fill-opacity:1;stroke:none">
      <path
         d="m 256.16299,596.66613 c -11.2,10.8 -25.3,24.5 -31.4,30.5 l -10.9,10.7 -6.2,-5.9 c -3.4,-3.3 -6.6,-6 -7.1,-6 -1.2,0 -6.3,5.3 -6.3,6.6 0,0.5 2.7,3.6 6,6.9 l 6,5.9 -7.2,7.3 -7.2,7.2 -15.8,-15.7 c -8.7,-8.6 -16.4,-15.8 -17.1,-16 -0.7,-0.1 -2.7,1.3 -4.5,3.1 l -3.3,3.4 52.8,52.4 c 81.3,80.7 92.2,91.4 93.7,91.7 1.5,0.3 71.9,-67.5 71.4,-68.9 -0.2,-0.4 -6,-6.6 -13,-13.8 -7.1,-7.2 -12.8,-13.5 -12.8,-13.9 0,-0.5 3.2,-3.9 7,-7.7 l 7.1,-6.8 6.2,5.9 c 11.1,10.5 13.1,13.2 11.6,15 -1.1,1.4 -0.9,2 1.9,4.5 2.7,2.4 3.5,2.7 5,1.8 1,-0.7 8,-7.3 15.6,-14.8 l 13.7,-13.7 -4.5,-5.5 c -2.4,-2.9 -9.7,-10.3 -16,-16.2 l -11.6,-10.9 -10.2,9.6 c -5.7,5.3 -10.5,9.5 -10.9,9.4 -0.4,-0.2 -10.9,-10.3 -23.5,-22.5 -21.9,-21.4 -22.7,-22.3 -21,-24.1 1.6,-1.9 1.6,-2.1 -1,-5.1 -1.5,-1.8 -3.2,-3.1 -4,-2.9 -0.7,0.2 -6.7,5.7 -13.4,12.2 l -12.2,12 -9.4,-9.5 c -5.1,-5.2 -9.4,-9.7 -9.4,-10 0,-0.3 4.4,-4.9 9.7,-10.1 l 9.6,-9.6 -2.4,-3 c -1.3,-1.7 -2.9,-3.1 -3.5,-3.1 -0.7,-0.1 -10.3,8.8 -21.5,19.6 z m 18.1,31.6 c 0,0.5 -3.1,4.1 -7,8.1 l -6.9,7.1 -9.1,-9 c -4.9,-4.9 -9,-9.3 -9,-9.7 0,-0.4 3.3,-3.9 7.3,-7.8 l 7.2,-7 8.8,8.8 c 4.8,4.7 8.7,9.1 8.7,9.5 z m 53.5,9.6 c 12.4,12.2 22.5,22.5 22.5,22.9 0,0.4 -3.2,3.9 -7,7.7 l -7,7 -23.2,-23.2 -23.2,-23.2 7.4,-7 c 4.1,-3.8 7.6,-6.8 7.8,-6.6 0.1,0.1 10.4,10.2 22.7,22.4 z m -80.7,17 c -8.8,9.6 -7.7,9.6 -17.9,-0.5 l -9,-8.9 7.1,-6.9 7.1,-6.9 8.9,8.8 8.9,8.8 z m 77.7,23.9 31,31.2 -7.3,7.2 -7.2,7.3 -36.5,-36.5 c -20.1,-20.1 -36.5,-36.9 -36.5,-37.5 0,-0.5 3,-4 6.7,-7.7 l 6.7,-6.7 6,5.7 c 3.4,3.1 20,19.8 37.1,37 z m 64.1,-22.6 9.4,9.2 -7.1,7.2 -7.2,7.3 -9.3,-9.7 -9.3,-9.7 6.7,-6.8 c 3.7,-3.7 6.8,-6.7 7,-6.7 0.1,0 4.5,4.1 9.8,9.2 z m -166.9,5 c 4.6,4.6 8.3,8.7 8.3,9.3 0,1.3 -12.2,13.5 -13.5,13.5 -0.6,0 -4.8,-3.8 -9.5,-8.5 l -8.5,-8.5 7,-7 c 3.8,-3.8 7.2,-7 7.5,-7 0.2,0 4.2,3.7 8.7,8.2 z m 48.5,21 -7.4,7.2 -9,-9.4 -8.9,-9.5 7.2,-6.9 7.1,-6.8 9.2,9.1 9.1,9.1 z m -15.7,12.7 c 0.6,1.5 -10.9,14.1 -13,14.1 -1.4,0 -17.5,-16.2 -17.5,-17.6 0,-0.7 3,-3.9 6.6,-7.2 l 6.7,-6.1 8.3,7.6 c 4.6,4.2 8.6,8.3 8.9,9.2 z m 41.7,-0.9 11.3,11 -17.5,16.9 c -9.6,9.4 -17.8,17 -18.3,17.1 -0.4,0 -5.8,-5 -11.9,-11.1 l -11.1,-11.2 17.4,-16.8 c 9.6,-9.2 17.7,-16.8 18.1,-16.9 0.4,0 5.8,4.9 12,11 z m 28.3,28 9,9 -7.5,7.5 -7.5,7.5 -9.5,-9.5 -9.5,-9.5 7,-7 c 3.8,-3.8 7.4,-7 8,-7 0.6,0 5.1,4.1 10,9 z m -22.5,21.5 9.4,9.5 -5.9,6 c -3.3,3.3 -6.6,6 -7.5,6 -0.8,0 -4.7,-3.3 -8.6,-7.3 -11.9,-12.2 -11.4,-10.5 -4.2,-17.5 3.5,-3.4 6.5,-6.2 6.8,-6.2 0.3,0 4.8,4.3 10,9.5 z"
         id="path110"
         style="fill:#999999;fill-opacity:1;stroke:none;stroke-width:0.1" />
      <path
         d="m 499.06299,617.66613 -18.4,17.6 3.6,3.5 3.5,3.5 10.8,-10.1 c 5.9,-5.5 14.4,-13.7 18.8,-18.1 l 7.9,-8.1 -2.9,-3 c -1.6,-1.6 -3.4,-3 -3.9,-3 -0.6,0 -9.3,8 -19.4,17.7 z"
         id="path112"
         style="fill:#999999;fill-opacity:1;stroke:none;stroke-width:0.1" />
      <path
         d="m 443.62997,673.40315 -18.4,17.6 3.6,3.5 3.5,3.5 10.8,-10.1 c 5.9,-5.5 14.4,-13.7 18.8,-18.1 l 7.9,-8.1 -2.9,-3 c -1.6,-1.6 -3.4,-3 -3.9,-3 -0.6,0 -9.3,8 -19.4,17.7 z"
         id="path112-6"
         style="fill:#999999;fill-opacity:1;stroke:none;stroke-width:0.1" />
      <path
         d="m 572.26299,618.26613 c -6.3,6.1 -26.4,25.9 -44.5,43.9 l -33,32.8 -4,-4 c -2.2,-2.2 -5.1,-4.7 -6.4,-5.6 -2.2,-1.5 -2.4,-1.4 -5.2,1.2 -1.6,1.5 -2.9,3.3 -2.9,3.9 0,0.6 2.5,3.5 5.5,6.5 l 5.5,5.5 -29.7,29.7 c -16.4,16.4 -30.1,29.7 -30.5,29.6 -0.4,-0.2 -5.9,-5.4 -12.2,-11.5 l -11.6,-11.3 h -4.9 c -4.8,0 -5.4,0.3 -11.6,6.1 -3.6,3.4 -6.5,6.5 -6.5,7 0,1 61.4,61.9 63.6,63.2 1.1,0.6 6.5,-4.1 20.2,-17.5 10.3,-10.1 23.1,-22.7 28.5,-27.9 l 9.7,-9.4 -4.4,-5.5 c -2.5,-3 -4.5,-5.9 -4.6,-6.3 0,-0.9 2.5,-3.5 12.5,-13 l 7.1,-6.6 11.8,11.8 11.7,11.7 -20.8,20.5 c -55.1,54.2 -62.6,61.5 -64.6,62.6 -2.8,1.6 -7.2,1.6 -10,0.2 -1.2,-0.6 -17.3,-16.1 -35.7,-34.5 -18.4,-18.4 -34.5,-34.1 -35.7,-34.9 -2.1,-1.4 -2.4,-1.3 -5.7,2.1 -2,2.1 -3.6,4.3 -3.6,4.9 0,0.7 16.2,17.2 36,36.6 38.6,37.8 43.1,41.5 49.9,40.3 6.1,-1.1 9.4,-3.5 22.6,-15.9 7,-6.6 13.3,-12.1 13.9,-12.3 0.6,-0.1 3.3,2 6,4.7 l 5,5 -6.5,6.3 c -3.5,3.5 -12.8,12.6 -20.6,20.2 l -14.2,13.9 -5.1,-2.2 c -4.1,-1.8 -6.1,-2.1 -9.4,-1.5 -2.2,0.5 -4.4,0.8 -4.7,0.9 -0.8,0 -26.7,-25.3 -63.1,-61.4 l -23.8,-23.5 -5.5,5.4 c -3,3 -5.5,5.9 -5.5,6.5 0,0.5 6.9,7.7 15.4,16 77.5,75.2 72,69.6 72.7,74.8 1.3,9.3 8.9,15.3 18.1,14.5 8,-0.8 14.8,-7.6 14.8,-14.8 0,-3.3 0.8,-4.4 7.3,-10.5 3.9,-3.8 17.8,-17.3 30.7,-29.9 13,-12.7 31.9,-31.2 42,-41.1 10.2,-9.9 37.9,-36.9 61.5,-60 23.7,-23.1 59.3,-57.9 79.3,-77.3 l 36.2,-35.4 -2.1,-3 c -1.2,-1.6 -2.8,-3.2 -3.6,-3.5 -1,-0.4 -5.3,3.1 -12.1,9.8 -5.9,5.7 -14.6,14.2 -19.5,18.9 l -8.7,8.5 -5.5,-6 -5.5,-6 8.7,-8.7 8.8,-8.8 -3.2,-3.1 c -2.8,-2.9 -3.3,-3 -5.1,-1.7 -1.2,0.8 -9.8,8.9 -19.1,18.1 -9.4,9.2 -17.5,16.7 -17.9,16.7 -0.4,0 -6.3,-5.6 -13.2,-12.5 l -12.4,-12.5 3.2,-3.3 c 1.8,-1.8 3.2,-3.6 3.2,-4 0,-1.5 -4.4,-5.7 -5.9,-5.7 -0.9,0.1 -21.6,19.8 -46.1,44 l -44.5,43.9 -5.2,-5.2 c -2.9,-2.8 -5.3,-5.6 -5.3,-6.3 0,-0.6 5.5,-6.4 12.3,-12.9 19,-18.3 75.7,-74.9 75.7,-75.5 0,-0.3 -0.8,-1.4 -1.8,-2.5 -4.2,-5 -4,-5.1 -16.2,6.8 z m 36.1,41.1 12.4,11.8 -37.9,37.5 -38,37.4 -12.4,-12.4 -12.5,-12.5 27.9,-27.4 c 15.4,-15.1 32.2,-31.7 37.4,-37 5.2,-5.2 9.8,-9.5 10.1,-9.4 0.4,0.1 6.2,5.4 13,12 z m 45.7,5.9 5.3,5.4 -38.3,37.5 c -47.4,46.4 -58.2,56.8 -58.8,56.7 -0.3,-0.1 -2.7,-2.6 -5.5,-5.6 l -4.9,-5.4 19.9,-19.8 c 35.7,-35.2 75.8,-74.1 76.4,-74.1 0.4,0 3,2.4 5.9,5.3 z m -154.4,50.5 c 2.5,2.3 4.6,4.8 4.6,5.5 0,0.6 -15.6,16.6 -34.7,35.4 l -34.8,34.2 -4.3,-4.2 c -7.7,-7.4 -8.8,-5.3 16,-29.5 42.2,-41.2 47.3,-46.2 47.9,-45.9 0.4,0.1 2.8,2.1 5.3,4.5 z m 54.6,56.2 c 0,0.8 -46.8,47.3 -50.3,50.1 l -2.9,2.2 -4.9,-4.9 c -2.7,-2.6 -4.9,-5.4 -4.9,-6 0,-0.7 11.8,-12.7 26.2,-26.8 l 26.2,-25.6 5.3,5.2 c 2.9,2.9 5.3,5.5 5.3,5.8 z"
         id="path114"
         style="fill:#999999;fill-opacity:1;stroke:none;stroke-width:0.1" />
      <path
         d="m 471.31877,645.2824 c -1.0836,1.17075 -2.43907,2.56144 -2.177,4.29706 0.4769,1.85893 2.31573,2.84743 3.78084,3.86145 0.92733,0.75112 2.3229,0.94633 3.17602,-0.0352 1.77932,-1.56477 3.35212,-3.34393 5.02014,-5.02335 -1.99302,-2.02787 -3.8846,-4.17888 -6.14758,-5.91779 -1.11187,0.0246 -1.78858,1.15708 -2.62132,1.77565 -0.35272,0.3383 -0.69576,0.68662 -1.0311,1.04214 z"
         id="path116"
         style="fill:#999999;fill-opacity:1;stroke:none;stroke-width:0.1" />
      <path
         d="m 775.46299,628.16613 c -1.8,1.9 -3.5,2.3 -9.9,2.5 -12.7,0.6 -16.9,4.3 -18.2,16.2 -1,9.9 -2.3,11 -14.6,12.6 -3.8,0.5 -5.6,1.4 -8.1,4 -3.4,3.7 -4.4,7 -4.4,15 0,6.9 -2,8.7 -10.1,9.3 l -6.1,0.5 4.4,4.4 c 4.2,4.3 4.5,4.5 9.1,3.9 9.1,-1 13.7,-6.5 13.7,-16.5 0,-8.6 2.2,-11 11.4,-12.1 11,-1.4 15.6,-6.4 15.6,-17.1 0,-8.7 1.7,-10.2 12.4,-10.9 8.1,-0.6 8.9,-0.9 11.9,-3.8 l 3.1,-3.2 -3.4,-3.5 c -1.9,-1.9 -3.7,-3.5 -4,-3.5 -0.3,0 -1.6,1 -2.8,2.2 z"
         id="path118"
         style="display:none;fill:#999999;fill-opacity:1;stroke:none;stroke-width:0.1" />
      <path
         d="m 409.38413,696.67256 c -8.2,2.5 -12.1,12.4 -7.6,19.7 7,11.5 25,6.2 25,-7.4 0,-5 -4.6,-10.8 -9.8,-12.3 -4.2,-1.1 -3.7,-1.1 -7.6,0 z"
         id="path138"
         style="fill:#999999;fill-opacity:1;stroke:none;stroke-width:0.1" />
      <path
         d="m 674.27736,700.01049 c -6.2,1.4 -14.3,9.5 -15.9,16 -2.7,10.6 3.7,21.5 15.1,25.7 4.1,1.6 7.6,1.3 12.7,-1 8.8,-4 13.4,-10.8 13.4,-19.9 -0.1,-6.3 -1.8,-10.2 -6.6,-14.6 -6.1,-5.8 -11.8,-7.7 -18.7,-6.2 z m 8.4,11.3 c 6.2,3 7.5,11.6 2.6,16.6 -9,8.9 -21.8,-4.2 -13.6,-14 1.4,-1.6 3.6,-3.2 4.8,-3.4 1.2,-0.2 2.4,-0.5 2.5,-0.6 0.2,0 1.9,0.6 3.7,1.4 z"
         id="path182"
         style="display:none;fill:#999999;fill-opacity:1;stroke:none;stroke-width:0.1" />
      <path
         d="m 537.36299,572.36613 c -3.8,1.7 -6,4.1 -8,8.9 -3.6,8.7 4.3,19.7 14.1,19.7 7.9,0 15.4,-7.6 15.4,-15.7 0,-10.3 -11.7,-17.2 -21.5,-12.9 z"
         id="path108"
         style="mix-blend-mode:normal;fill:#999999;fill-opacity:1;fill-rule:nonzero;stroke:none;stroke-width:0.1;stroke-linecap:round;stroke-linejoin:round;stroke-dasharray:none;stroke-opacity:0.995093;paint-order:stroke markers fill" />
    </g>
  </g>
  <g
     id="csw"
     style="mix-blend-mode:normal;fill:url(#linearGradient1421);fill-opacity:1"
     inkscape:highlight-color="#5fc9b0">
    <path
       d="m 399.26299,266.56613 c -28.7,5.1 -49.6,15.7 -66.7,33.7 -8.7,9.1 -12.4,14.6 -17.3,25 -12,25.6 -12.5,53.5 -1.5,77.4 11.3,24.4 33.2,41.6 63.8,49.7 5,1.4 19.8,4.5 32.7,7 25.2,4.9 33.3,7.5 40.8,12.9 7,5.2 12.3,13.3 13.7,21 l 0.7,3.6 14.7,0.3 14.6,0.3 v 6 6 l -15.1,0.3 -15.1,0.3 -2.9,6 c -1.9,4 -4.9,8 -8.7,11.5 -10.5,9.7 -22.9,14.4 -38.4,14.4 h -8.3 v 29 29 h 8.4 c 30.3,0 64,-14.5 84.3,-36.3 13.7,-14.7 20.8,-28.8 25.7,-50.9 l 0.6,-2.7 -10.2,-0.3 -10.3,-0.3 -0.3,-5.4 c -0.2,-3.7 0.1,-5.7 1,-6.2 0.7,-0.5 5.5,-0.9 10.6,-0.9 h 9.2 v -4.9 c 0,-6.8 -2.7,-20.2 -5.6,-28 -8,-21.2 -26.2,-39.6 -48.7,-49.3 -10.9,-4.7 -21.6,-7.5 -48.4,-12.8 -11.4,-2.2 -22.9,-4.6 -25.4,-5.4 -12.1,-3.7 -20.2,-10.1 -24.8,-19.6 -2.2,-4.6 -2.6,-6.9 -2.6,-14 0,-7.1 0.4,-9.4 2.7,-14.2 3.3,-7.1 10.2,-14.6 16.6,-18.1 14.9,-8.1 37.8,-7.4 56.2,1.6 6.9,3.4 10,5.7 16.9,12.8 l 8.5,8.7 17.5,-15.8 c 9.7,-8.7 18.9,-17.2 20.5,-18.9 l 2.9,-3 -2.9,-3.8 c -5.5,-7.3 -23,-23.9 -30.1,-28.7 -9.2,-6 -20.1,-10.8 -32.8,-14.2 -8.6,-2.3 -12.3,-2.7 -27,-2.9 -9.3,-0.2 -18.1,-0.1 -19.5,0.1 z m 88.9,42 c 4.9,6.2 0.7,15.4 -7,15.4 -7.6,0 -11.7,-9.1 -6.8,-15.4 1.7,-2.2 2.8,-2.6 6.9,-2.6 4.1,0 5.2,0.4 6.9,2.6 z"
       id="path82"
       style="fill:url(#linearGradient1421);fill-opacity:1;stroke:none;stroke-width:0.1" />
    <path
       d="m 136.76299,268.06613 c -4.4,0.4 -10.9,1.3 -14.5,2 -8,1.4 -28.599996,8.1 -35.199996,11.5 -30.6,15.5 -56.7,42.3 -70.8,72.7 -4.4,9.7 -10.4000004,27.1 -11.5000004,33.5 l -0.7,4.2 33.2000004,-0.2 33.1,-0.3 2.5,-7.3 c 12,-35.7 39.699996,-55.5 77.399996,-55.5 30,0 48.4,9.3 70.7,35.5 4.1,4.9 7.8,8.8 8.3,8.8 0.5,0 10,-8.9 21.1,-19.8 l 20.3,-19.9 -4.4,-5.4 c -20.7,-25.3 -35.6,-37.7 -57.7,-48.1 -12.6,-5.9 -29.1,-10.3 -44.3,-11.7 -12.7,-1.2 -15.8,-1.2 -27.5,0 z m 0,28.4 c 3.6,3.5 3.5,9.6 -0.1,12.4 -4.6,3.6 -10.5,2.7 -12.9,-2 -3.4,-6.5 0.1,-12.9 7,-12.9 2.5,0 4.4,0.8 6,2.5 z m 36,0 c 5.4,5.3 1.6,14.5 -6,14.5 -4.9,0 -8.5,-3.6 -8.5,-8.5 0,-4.9 3.6,-8.5 8.5,-8.5 2.5,0 4.4,0.8 6,2.5 z m -72.999996,3 c 5.299996,5.2 1.599996,14.5 -5.7,14.5 -4,0 -7.6,-2.3 -8.9,-5.6 -1.1,-3 1,-8.7 3.8,-10.3 3.3,-1.9 8.2,-1.3 10.8,1.4 z m 111.499996,0 c 5.3,5.7 1.3,14.5 -6.6,14.5 -7.4,0 -11.3,-9.3 -6.2,-14.7 3.1,-3.3 9.6,-3.2 12.8,0.2 z"
       id="path84"
       style="fill:url(#linearGradient1421);fill-opacity:1;stroke:none;stroke-width:0.1" />
    <path
       d="m 543.76299,269.46613 c -6.6,2.4 -12.5,11.2 -12.5,18.7 0,1.3 1.4,6.4 3,11.4 3.3,9.5 15.6,54.3 29,104.9 4.5,17 11,41.8 14.5,55 11.1,42.1 28.4,108.7 30.1,116.5 1.9,8.8 3.2,11.5 7.1,15.2 5.4,5.1 9.4,6.1 25.5,6.1 13.1,-0.1 15.2,-0.3 19.3,-2.3 6.4,-3.1 9.5,-8 9.5,-15 0,-3 0.7,-8.4 1.4,-12 0.8,-3.6 4.4,-20.2 8,-36.9 3.6,-16.7 6.6,-30.6 6.6,-30.8 0,-0.2 -14.8,-0.3 -33,-0.3 -32.6,0 -32.9,0 -35,-2.2 -2.6,-2.9 -2.5,-5.1 0.4,-8.5 l 2.4,-2.8 88.9,-0.3 c 48.8,-0.2 90.3,0 92.1,0.3 3.8,0.7 7.2,4 7.2,7 0,1.2 -1,3.1 -2.3,4.3 -2.3,2.2 -2.8,2.2 -36.1,2.2 -31.7,0 -33.7,0.1 -33.2,1.7 2.1,7.2 15.6,74.1 15.6,77.5 0,6.7 3.6,12.8 9.2,15.6 4.2,2.2 5.9,2.4 19.6,2.5 14.3,0.1 15.2,0 20.4,-2.6 7.6,-3.7 10.1,-7.8 13.3,-21.2 1.5,-6.1 4.7,-18.7 7.1,-28 2.5,-9.4 6.7,-25.3 9.4,-35.5 20.6,-78.1 41.9,-158.1 52.5,-196.5 7.3,-26.4 7.6,-30.3 3.5,-37 -1.5,-2.5 -4,-4.5 -7.4,-6.1 -4.9,-2.3 -6,-2.4 -27.6,-2.4 -21.4,0 -22.8,0.1 -27,2.2 -2.4,1.3 -5.3,3.5 -6.3,5 -1.1,1.5 -4.4,11.6 -7.2,22.5 -2.9,10.9 -9.4,35.3 -14.5,54.3 -10.1,37.8 -13.2,49.5 -21,79.7 l -5.3,20.3 h -10.2 c -11.2,0 -12.5,-0.6 -12.5,-5.7 0,-5.8 2.7,-7.3 12.6,-7.3 h 8.6 l -0.7,-3.3 c -1.7,-8.3 -8.6,-37.2 -22.8,-95 -10.3,-42.1 -16,-63.7 -17.3,-65.4 -4.1,-5.5 -7,-6.8 -15.9,-7.1 -10,-0.5 -16.3,1.8 -19.4,6.9 -1.1,1.7 -3.6,10.2 -5.6,18.8 -2.1,8.6 -6.1,25.6 -9.1,37.9 -3,12.2 -5.4,22.7 -5.4,23.2 0,0.6 7,1 17.5,1 h 17.5 v 5.5 5.5 h -19.2 -19.3 l -3.9,15.8 c -5.9,24.4 -12.6,53.2 -12.6,54.8 0,1.1 2,1.4 9.5,1.4 9.3,0 9.6,0.1 10.5,2.6 0.6,1.4 1,4.3 1,6.5 v 3.9 h -11.7 -11.8 l -9.2,-37.3 c -5.1,-20.4 -13.3,-52.5 -18.3,-71.2 -4.9,-18.7 -10.8,-41 -13.1,-49.5 -4.5,-17.2 -6.4,-20.6 -13.2,-23.9 -4,-1.9 -6,-2.1 -26.8,-2.1 -16.6,0.1 -23.4,0.4 -26.4,1.5 z m 45,26 c 6.1,6 0.5,15.7 -8.1,14.1 -4.1,-0.8 -6.4,-3.9 -6.4,-8.5 0,-7.5 9.1,-11.1 14.5,-5.6 z m 255.6,-1.2 c 4.4,3.4 5.1,9.6 1.4,13.2 -5.3,5.4 -14.4,1.4 -14.5,-6.3 0,-6.3 8.2,-10.7 13.1,-6.9 z m -246.8,30.9 c 0.6,3.2 13.8,50.1 27.8,99.2 6.5,23 11.9,42.7 11.9,43.7 0,1.7 -0.8,1.9 -6.4,1.9 -6,0 -6.4,-0.2 -7.5,-2.8 -1.1,-2.8 -17.8,-61.2 -29.6,-103.7 -3.7,-13.2 -7.5,-26.9 -8.6,-30.4 -3,-10.1 -3,-10.1 5,-10.1 6.3,0 6.9,0.2 7.4,2.2 z m 242.7,-1.4 c 0,0.4 -2.4,9.3 -5.4,19.7 -3,10.5 -12.2,43.2 -20.6,72.7 l -15.2,53.8 h -6.9 c -3.8,0 -6.9,-0.4 -6.9,-0.9 0,-0.5 4.9,-18.4 10.9,-39.7 17.3,-61.7 29.2,-103.8 29.6,-105.2 0.5,-1.3 14.5,-1.8 14.5,-0.4 z m -107.2,37.9 0.3,5.3 h -10 -10.1 v -4.8 c 0,-2.7 0.3,-5.2 0.7,-5.6 0.4,-0.4 4.8,-0.5 9.8,-0.4 l 9,0.3 z m -18.5,36.8 c 7.2,30.4 15.7,68.4 15.7,69.8 0,1.5 -2,1.7 -19.5,1.7 -10.7,0 -19.5,-0.2 -19.5,-0.4 0,-1.4 18.1,-82 18.6,-82.8 1.1,-1.8 2.1,0.7 4.7,11.7 z m -61.4,140.1 c 3.8,4.8 2.4,11.2 -2.8,13.4 -8.6,3.5 -16.2,-7 -9.9,-13.7 3.2,-3.4 9.9,-3.2 12.7,0.3 z m 128,-0.9 c 3.2,2.7 3.8,8.2 1.2,11.5 -4.2,5.3 -12.8,4.1 -14.9,-2.2 -1.3,-3.5 -0.8,-5.6 2.1,-8.8 2.5,-2.7 8.5,-3 11.6,-0.5 z"
       id="path86"
       style="fill:url(#linearGradient1421);fill-opacity:1;stroke:none;stroke-width:0.1" />
    <path
       d="m 645.56299,299.16613 c -3,1.5 -5.6,7.2 -4.8,10.7 2.1,9.5 16.2,9.7 18.9,0.3 2.3,-8 -6.4,-14.7 -14.1,-11 z"
       id="path88"
       style="fill:url(#linearGradient1421);fill-opacity:1;stroke:none;stroke-width:0.1" />
    <path
       d="m 766.06299,299.66613 c -6.8,4.3 -5,15.8 2.8,17.7 6.1,1.6 13.2,-5.3 11.9,-11.3 -1.4,-6.3 -9.4,-9.8 -14.7,-6.4 z"
       id="path90"
       style="fill:url(#linearGradient1421);fill-opacity:1;stroke:none;stroke-width:0.1" />
    <path
       d="m 401.26299,342.66613 c -3.5,1.3 -6,4.7 -6,8 0,4.6 1.6,7.2 5.2,8.8 9,3.7 16.9,-6.7 10.6,-13.9 -2.3,-2.6 -7,-4 -9.8,-2.9 z"
       id="path92"
       style="fill:url(#linearGradient1421);fill-opacity:1;stroke:none;stroke-width:0.1" />
    <path
       d="m 196.96299,383.96613 c -2.4,1.9 -2.8,2.9 -2.5,6.3 0.2,3 1,4.5 2.9,6 6.9,5 15.6,-4.6 10.2,-11.2 -2.7,-3.2 -7.3,-3.7 -10.6,-1.1 z"
       id="path94"
       style="fill:url(#linearGradient1421);fill-opacity:1;stroke:none;stroke-width:0.1" />
    <path
       d="m 0.66299365,409.46613 c -0.9,6.5 -0.9,35.8 0.1,41.2 l 0.69999995,4.3 h 33.4000004 33.4 v -24.5 c 0,-13.5 0,-24.8 0,-25.3 0,-0.4 -15,-0.7 -33.4,-0.7 l -33.5000004,-0.1 z"
       id="path96"
       style="fill:url(#linearGradient1421);fill-opacity:1;stroke:none;stroke-width:0.1" />
    <path
       d="m 141.66299,420.86613 c -7.6,4.6 -10.2,12.8 -6.4,20.5 4.9,10.1 17.6,12.2 25.6,4.2 7.3,-7.3 5.9,-19.3 -2.9,-24.6 -4.2,-2.6 -12.1,-2.6 -16.3,-0.1 z m 12.5,9.7 c 2.7,3.4 2.7,5.8 -0.1,8.4 -2.9,2.7 -7.3,2.6 -9.2,-0.2 -2.2,-3.1 -2,-6.4 0.4,-8.8 2.8,-2.8 6.4,-2.5 8.9,0.6 z"
       id="path98"
       style="fill:url(#linearGradient1421);fill-opacity:1;stroke:none;stroke-width:0.1" />
    <path
       d="m 3.9629936,468.66613 c -1.5,1.4 7.4000004,29.2 13.6000004,42.4 13.6,29.1 38.4,55.5 65.7,69.8 18.699996,9.8 39.499996,15 62.999996,15.8 19.6,0.6 34.5,-1.4 51.7,-7.2 21.8,-7.3 38.5,-17.8 57.1,-36.1 l 10.6,-10.4 -9.6,-9.8 c -5.4,-5.3 -14.8,-15 -21,-21.6 l -11.3,-11.8 -11,10.8 c -19.7,19.5 -37.8,26.4 -66,25.1 -18.6,-0.8 -31.2,-5.2 -45.6,-15.9 -14.999996,-11.1 -25.999996,-28.3 -29.999996,-46.9 l -1,-4.8 -32.9,0.1 c -18.1,0 -33.1000004,0.2 -33.3000004,0.5 z m 80.0000004,63.3 c 11.8,7.1 8.1,24.5 -5.4,25.7 -6.5,0.6 -11.1,-2 -14.2,-8 -3.1,-6.2 -2.3,-10.7 2.9,-15.9 3.3,-3.4 4.3,-3.8 8.6,-3.8 3.1,0 6.1,0.7 8.1,2 z"
       id="path100"
       style="fill:url(#linearGradient1421);fill-opacity:1;stroke:none;stroke-width:0.1" />
    <path
       d="m 393.46299,499.96613 c -3.6,2.2 -5.2,5.4 -5.2,10.7 0,2.7 0.8,4.3 3.4,6.9 2.9,2.9 4.1,3.4 7.9,3.4 8.4,0 14.4,-8 11.4,-15.2 -3.1,-7.4 -10.8,-9.9 -17.5,-5.8 z"
       id="path102"
       style="fill:url(#linearGradient1421);fill-opacity:1;stroke:none;stroke-width:0.1" />
    <path
       d="m 335.26299,520.16613 c -6.9,6.1 -16.9,14.9 -22.2,19.5 -5.4,4.6 -9.8,8.9 -9.8,9.5 0,1.9 17.3,18.8 26,25.4 17,12.8 35.4,20.4 59.8,24.8 l 3.2,0.5 v -27.7 -27.7 l -5.8,-2.5 c -12.4,-5.4 -27.6,-18 -35.2,-29.3 -1.4,-2 -2.7,-3.7 -3,-3.6 -0.3,0 -6.1,5 -13,11.1 z"
       id="path104"
       style="fill:url(#linearGradient1421);fill-opacity:1;stroke:none;stroke-width:0.1" />
    <path
       d="m 705.66299,529.86613 c -3.6,2.2 -5.9,7.8 -4.9,11.3 1.1,3.4 4.4,6.6 7.6,7.3 4.1,0.9 9.4,-1.9 11.4,-6.1 4.2,-8.9 -5.8,-17.8 -14.1,-12.5 z"
       id="path106"
       style="fill:url(#linearGradient1421);fill-opacity:1;stroke:none;stroke-width:0.1" />
  </g>
  <g
     inkscape:groupmode="layer"
     id="layer1"
     inkscape:label="badge"
     style="display:inline;fill:#9b5de5;fill-opacity:1"
     inkscape:highlight-color="#cd87de">
    <g
       aria-label="25"
       transform="scale(1.0971074,0.91148775)"
       id="text9634"
       style="font-weight:bold;font-size:155.02px;line-height:1.25;font-family:'Miriam CLM';-inkscape-font-specification:'Miriam CLM, Bold';display:inline;fill:#ffca3a;fill-opacity:1;stroke-width:3.87600009;stroke-dasharray:none">
      <path
         d="m 700.59016,243.23663 28.93612,-28.5247 c 7.26831,-9.87394 10.01107,-18.10222 10.01107,-26.46764 0,-17.82794 -12.75383,-29.07325 -31.26746,-29.07325 -13.85094,0.54855 -26.60477,11.931 -26.74191,26.33049 h 15.22232 c 0.41141,-4.93696 5.0741,-10.01107 11.79386,-10.01107 7.95401,0 13.43953,5.89693 13.43953,13.57666 0,5.89694 -2.60562,10.55963 -9.05111,18.51363 l -31.4046,35.65588 v 13.57666 h 57.46082 v -13.57666 z m 91.05956,-51.15247 19.74787,-25.09626 -12.47956,-7.81686 -35.24446,44.84412 c -4.11414,5.62266 -6.44549,13.57667 -6.44549,21.25639 0,18.65077 15.35946,33.05026 34.42164,33.05026 18.10222,0 32.63885,-14.53663 32.63885,-33.18739 0,-18.65077 -14.53663,-33.05026 -32.63885,-33.05026 z m -0.68569,15.22232 c 8.50256,0 15.49659,8.22828 15.49659,17.96507 0,9.59966 -6.99403,17.55367 -15.49659,17.55367 -8.36542,0 -15.22232,-7.95401 -15.22232,-17.55367 0,-9.73679 6.8569,-17.96507 15.22232,-17.96507 z"
         id="text4"
         style="font-size:137.138px;font-family:'Universalis ADF Std';-inkscape-font-specification:'Universalis ADF Std, Bold';display:inline;stroke-width:3.876;stroke-linecap:round"
         transform="scale(0.97368617,1.027025)"
         aria-label="26" />
    </g>
  </g>
</svg>
